<?xml version="1.0" encoding="utf-8"?><svg version="1.1" id="svg" xmlns="http://www.w3.org/2000/svg" xmlns:xlink="http://www.w3.org/1999/xlink" x="0px" y="0px" width="1200px" height="1200px" viewBox="0 0 1200 1200"><a xlink:href="http://free.arinco.org/"><path fill="#0082C9" d="M1200,1020c0,99-81,180-180,180H180c-99,0-180-81-180-180V180C0,81,81,0,180,0h840c99,0,180,81,180,180V1020 z"/><path fill="#FFF" d="M600.857,349.926c-116.611,0-215.446,79.051-246.075,186.162c-26.623-56.815-84.316-96.616-150.77-96.616 c-91.389,0-166.513,75.125-166.513,166.514c0,91.388,75.124,166.539,166.513,166.539c66.453,0,124.147-39.825,150.77-96.645 c30.628,107.114,129.463,186.192,246.075,186.192c115.747,0,214.078-77.882,245.499-183.79 c27.113,55.525,84.083,94.242,149.594,94.242c91.386,0,166.55-75.151,166.55-166.539c0-91.39-75.164-166.514-166.55-166.514 c-65.511,0-122.48,38.692-149.594,94.216C814.936,427.78,716.604,349.926,600.857,349.926z M600.857,447.671 c88.022,0,158.344,70.282,158.344,158.315c0,88.021-70.321,158.342-158.344,158.342c-88.03,0-158.312-70.32-158.312-158.342 C442.546,517.954,512.828,447.671,600.857,447.671z M204.013,537.217c38.566,0,68.798,30.202,68.798,68.769 c0,38.565-30.231,68.794-68.798,68.794c-38.566,0-68.768-30.229-68.768-68.794C135.245,567.419,165.447,537.217,204.013,537.217z M995.95,537.217c38.571,0,68.805,30.202,68.805,68.769c0,38.565-30.233,68.794-68.805,68.794 c-38.566,0-68.761-30.229-68.761-68.794C927.189,567.419,957.384,537.217,995.95,537.217z"/></a></svg>